HIERARCHY
ROOT Hips
{
 OFFSET 0.000000 0.000000 0.000000
 CHANNELS 6 Xposition Yposition Zposition Yrotation Xrotation Zrotation
 JOINT Chest
 {
  OFFSET 0.000000 9.585900 0.002600
  CHANNELS 3 Yrotation Xrotation Zrotation
  JOINT Chest2
  {
   OFFSET 0.000000 9.601200 -0.005300
   CHANNELS 3 Yrotation Xrotation Zrotation
   JOINT Chest3
   {
    OFFSET 0.000000 9.561800 0.000000
    CHANNELS 3 Yrotation Xrotation Zrotation
    JOINT Chest4
    {
     OFFSET 0.000000 9.552100 0.000000
     CHANNELS 3 Yrotation Xrotation Zrotation
     JOINT Neck
     {
      OFFSET 0.000000 14.453000 0.000000
      CHANNELS 3 Yrotation Xrotation Zrotation
      JOINT Head
      {
       OFFSET 0.000000 8.936500 -0.011300
       CHANNELS 3 Yrotation Xrotation Zrotation
       End Site
       {
        OFFSET 0.000000 17.073600 -0.006000
       }
      }
     }
     JOINT RightCollar
     {
      OFFSET -2.921100 9.558500 0.000000
      CHANNELS 3 Yrotation Xrotation Zrotation
      JOINT RightShoulder
      {
       OFFSET -13.519700 0.000000 0.000000
       CHANNELS 3 Yrotation Xrotation Zrotation
       JOINT RightElbow
       {
        OFFSET 0.000000 -29.696600 0.000000
        CHANNELS 3 Yrotation Xrotation Zrotation
        JOINT RightWrist
        {
         OFFSET 0.000000 -24.004700 0.000000
         CHANNELS 3 Yrotation Xrotation Zrotation
         End Site
         {
          OFFSET 0.000000 -17.728500 0.000000
         }
        }
       }
      }
     }
     JOINT LeftCollar
     {
      OFFSET 2.921100 9.558500 0.000000
      CHANNELS 3 Yrotation Xrotation Zrotation
      JOINT LeftShoulder
      {
       OFFSET 13.519700 0.000000 0.000000
       CHANNELS 3 Yrotation Xrotation Zrotation
       JOINT LeftElbow
       {
        OFFSET 0.000000 -29.696600 0.000000
        CHANNELS 3 Yrotation Xrotation Zrotation
        JOINT LeftWrist
        {
         OFFSET 0.000000 -24.004700 0.000000
         CHANNELS 3 Yrotation Xrotation Zrotation
         End Site
         {
          OFFSET 0.000000 -17.728500 0.000000
         }
        }
       }
      }
     }
    }
   }
  }
 }
 JOINT RightHip
 {
  OFFSET -7.771700 -0.012900 -0.001300
  CHANNELS 3 Yrotation Xrotation Zrotation
  JOINT RightKnee
  {
   OFFSET 0.000000 -40.869800 0.001200
   CHANNELS 3 Yrotation Xrotation Zrotation
   JOINT RightAnkle
   {
    OFFSET 0.000000 -39.717900 0.002100
    CHANNELS 3 Yrotation Xrotation Zrotation
    JOINT RightToe
    {
     OFFSET 0.000000 -4.965400 11.033500
     CHANNELS 3 Yrotation Xrotation Zrotation
     End Site
     {
      OFFSET 0.000000 -1.423100 5.872300
     }
    }
   }
  }
 }
 JOINT LeftHip
 {
  OFFSET 7.771700 -0.012900 -0.001300
  CHANNELS 3 Yrotation Xrotation Zrotation
  JOINT LeftKnee
  {
   OFFSET 0.000000 -40.869800 0.001200
   CHANNELS 3 Yrotation Xrotation Zrotation
   JOINT LeftAnkle
   {
    OFFSET 0.000000 -39.717900 0.002100
    CHANNELS 3 Yrotation Xrotation Zrotation
    JOINT LeftToe
    {
     OFFSET 0.000000 -4.965400 11.033500
     CHANNELS 3 Yrotation Xrotation Zrotation
     End Site
     {
      OFFSET 0.000000 -1.423100 5.872300
     }
    }
   }
  }
 }
}
MOTION
Frames: 15
Frame Time: 0.008333
-133.286563 57.989731 110.506092 175.287556 -29.034320 -1.286761 2.394597 20.190355 3.171250 0.083535 2.512693 0.282720 0.277389 4.176407 0.550796 1.222100 17.277715 2.332937 1.059200 13.577333 -3.186592 3.255526 -10.453245 -6.433923 2.180243 -1.640724 -0.494936 8.209381 -13.389487 -16.742956 156.223570 -73.080208 -123.792552 16.480355 -17.112075 -47.117056 -6.600682 -4.154915 -3.042337 -0.593776 -8.409566 -0.823232 28.424238 -55.011304 -66.322715 4.836565 -7.505038 25.553002 2.247069 -46.413065 -0.164692 -15.148730 65.335353 -17.668344 10.712406 26.323075 6.040540 -0.534992 -17.749593 1.115995 -5.825584 -43.531717 1.130049 24.767563 65.633987 23.985280 -16.211196 3.362971 -2.604746 0.075996 0.331322 0.124551
-133.294478 57.995458 110.498393 175.346848 -29.032157 -1.295848 2.387362 20.205950 3.199207 0.084285 2.516990 0.283782 0.279283 4.174849 0.553553 1.229871 17.279664 2.343279 0.993722 13.529337 -3.180488 3.138102 -10.614538 -6.329477 2.198338 -1.656679 -0.498271 8.219042 -13.394948 -16.766653 156.236505 -73.094057 -123.801841 16.478510 -17.132809 -47.108548 -6.593115 -4.174387 -3.054229 -0.552179 -8.411116 -0.803082 28.404219 -55.006501 -66.362170 4.835847 -7.499731 25.536780 2.194512 -46.417815 -0.188175 -15.505219 65.308636 -18.014490 10.819251 26.299594 6.081589 -0.534003 -17.739145 1.076403 -5.816098 -43.529612 1.109617 24.726178 65.638985 23.934170 -16.238181 3.367378 -2.602637 0.108914 0.319519 0.135254
-133.309953 57.998890 110.492779 175.399057 -29.011879 -1.260443 2.371609 20.202964 3.181580 0.135017 2.536138 0.318071 0.201529 4.148833 0.510004 1.268673 17.288785 2.367556 0.928754 13.485178 -3.172316 3.028510 -10.768972 -6.230004 2.201302 -1.673440 -0.504282 8.245618 -13.398389 -16.782601 156.243516 -73.107233 -123.806933 16.480982 -17.160820 -47.098460 -6.565010 -4.188191 -3.062755 -0.554148 -8.411398 -0.795405 28.418105 -55.022005 -66.350269 4.846415 -7.476158 25.491359 2.127963 -46.449216 -0.245171 -15.697545 65.301641 -18.245025 10.936887 26.289826 6.120221 -0.537350 -17.742124 1.049095 -5.762474 -43.550740 1.048858 24.723380 65.641070 23.876160 -16.270016 3.386848 -2.542531 0.106492 0.301150 0.125662
-133.326067 58.000729 110.488964 175.474325 -28.980712 -1.236612 2.309093 20.182244 3.139509 0.135503 2.536332 0.318761 0.243644 4.160485 0.534995 1.259327 17.282982 2.370854 0.874550 13.423593 -3.140891 2.922459 -10.893081 -6.156516 2.170395 -1.688033 -0.516899 8.303188 -13.400399 -16.788183 156.260605 -73.114101 -123.818280 16.504674 -17.136988 -47.123371 -6.552150 -4.203607 -3.070921 -0.556790 -8.404440 -0.789958 28.422116 -55.037752 -66.342358 4.853485 -7.476666 25.499496 2.034618 -46.492243 -0.302810 -15.853519 65.298164 -18.445197 11.059641 26.287035 6.169473 -0.549817 -17.752122 1.017684 -5.726659 -43.584123 0.993528 24.670484 65.648712 23.780662 -16.326345 3.401521 -2.499735 0.139604 0.288758 0.123336
-133.341154 58.001960 110.485423 175.531578 -28.952187 -1.213363 2.264896 20.163054 3.106787 0.135966 2.536331 0.319461 0.286165 4.169079 0.561232 1.248893 17.275985 2.373463 0.842869 13.316154 -3.063383 2.815073 -10.958265 -6.130410 2.196425 -1.696081 -0.521296 8.302247 -13.401636 -16.803552 156.294231 -73.113067 -123.841682 16.502759 -17.178124 -47.104215 -6.538342 -4.216724 -3.078522 -0.556428 -8.393549 -0.785915 28.410455 -55.048370 -66.335725 4.861729 -7.483329 25.509290 1.948779 -46.536387 -0.340856 -15.987968 65.295038 -18.628962 11.147668 26.305579 6.238729 -0.555834 -17.776305 0.964981 -5.701571 -43.614736 0.952073 24.657871 65.651030 23.721576 -16.367369 3.417606 -2.469379 0.151665 0.274389 0.127451
-133.359048 58.002136 110.482713 175.567078 -28.921306 -1.165477 2.305092 20.155388 3.126318 0.097453 2.525043 0.297332 0.285907 4.166050 0.560893 1.252527 17.271389 2.381242 0.796345 13.258640 -3.036953 2.720159 -11.069168 -6.064981 2.222928 -1.701013 -0.526798 8.296787 -13.404154 -16.816117 156.330935 -73.109258 -123.868826 16.498621 -17.214388 -47.086394 -6.527702 -4.226954 -3.081594 -0.546716 -8.380219 -0.785148 28.400667 -55.056135 -66.331684 4.866876 -7.487502 25.518178 1.866216 -46.595494 -0.384590 -16.049903 65.307956 -18.764700 11.242754 26.348340 6.315715 -0.587237 -17.823436 0.918180 -5.648931 -43.648098 0.895059 24.673081 65.647835 23.677444 -16.410548 3.439696 -2.430163 0.179571 0.248618 0.116231
-133.372845 58.001754 110.480999 175.607396 -28.891175 -1.145759 2.322489 20.140771 3.147005 0.084583 2.520772 0.288398 0.259300 4.158522 0.547690 1.286684 17.270874 2.404611 0.752707 13.202982 -3.013031 2.631342 -11.176343 -6.005108 2.229081 -1.704221 -0.536226 8.310190 -13.409768 -16.826127 156.368492 -73.108880 -123.901367 16.498732 -17.226525 -47.078108 -6.518310 -4.237614 -3.084144 -0.529394 -8.360359 -0.783649 28.390189 -55.060681 -66.352229 4.867057 -7.497137 25.548939 1.815517 -46.650077 -0.424831 -16.066037 65.326254 -18.818762 11.268004 26.397171 6.362897 -0.566440 -17.871586 0.876622 -5.624051 -43.677335 0.868289 24.671189 65.644319 23.632357 -16.442649 3.448056 -2.414380 0.182898 0.245509 0.133874
-133.389163 58.000468 110.480375 175.678881 -28.856880 -1.125869 2.294245 20.120173 3.139911 0.136798 2.531006 0.323755 0.177201 4.139583 0.500215 1.287174 17.268380 2.408871 0.745397 13.152461 -2.980921 2.548479 -11.280877 -5.951249 2.264877 -1.704456 -0.534591 8.323019 -13.416255 -16.838441 156.406299 -73.110536 -123.935238 16.496295 -17.237695 -47.066847 -6.494665 -4.244415 -3.083123 -0.493717 -8.334963 -0.774933 28.369542 -55.062894 -66.409462 4.861976 -7.522228 25.627424 1.785028 -46.706227 -0.503903 -16.107955 65.342825 -18.884141 11.279721 26.449723 6.404181 -0.571297 -17.922856 0.852131 -5.607424 -43.712217 0.813981 24.669013 65.636051 23.591730 -16.487638 3.455644 -2.383781 0.203469 0.245154 0.131374
-133.404381 57.999591 110.479088 175.743532 -28.832697 -1.106331 2.273523 20.109412 3.136087 0.136842 2.529584 0.325020 0.176210 4.136697 0.503458 1.255460 17.262074 2.396925 0.741287 13.102823 -2.951134 2.470685 -11.382645 -5.901618 2.300795 -1.705005 -0.531382 8.333356 -13.421599 -16.850313 156.432251 -73.111094 -123.955553 16.493026 -17.249371 -47.053321 -6.450848 -4.249924 -3.076509 -0.473682 -8.306510 -0.775782 28.394567 -55.086397 -66.355394 4.884268 -7.507973 25.565094 1.772832 -46.754554 -0.581946 -16.216328 65.346790 -19.015727 11.343694 26.530710 6.493643 -0.544203 -18.001821 0.791682 -5.579961 -43.734625 0.756222 24.666408 65.624208 23.558319 -16.526455 3.461494 -2.362625 0.221765 0.244937 0.133110
-133.419372 57.998091 110.479095 175.795590 -28.804014 -1.078016 2.260820 20.093701 3.127403 0.136909 2.528254 0.326272 0.180760 4.136555 0.506707 1.257198 17.256982 2.406370 0.700956 13.049289 -2.933032 2.397915 -11.481936 -5.855978 2.285779 -1.710846 -0.540661 8.356524 -13.426693 -16.855416 156.440486 -73.110766 -123.957268 16.493712 -17.257721 -47.044180 -6.421384 -4.257685 -3.072130 -0.466330 -8.277506 -0.787923 28.411795 -55.107721 -66.338408 4.899213 -7.483086 25.489965 1.789291 -46.805078 -0.668233 -16.329343 65.349879 -19.146984 11.400702 26.588340 6.561489 -0.522866 -18.058733 0.754694 -5.556578 -43.763296 0.690693 24.709686 65.605964 23.567838 -16.531319 3.473859 -2.344735 0.191544 0.244506 0.144453
-133.432745 57.997767 110.477366 175.846877 -28.790833 -1.051650 2.249079 20.093534 3.121398 0.137042 2.527266 0.327328 0.232488 4.143221 0.540261 1.261611 17.248875 2.423978 0.587218 13.012509 -2.955040 2.340701 -11.601839 -5.801611 2.184412 -1.723862 -0.577129 8.407889 -13.431548 -16.848543 156.433301 -73.107050 -123.943615 16.497100 -17.260671 -47.041959 -6.461450 -4.268747 -3.089412 -0.437684 -8.251159 -0.799644 28.419628 -55.128616 -66.338692 4.906906 -7.463838 25.435571 1.807691 -46.834075 -0.749662 -16.410698 65.359590 -19.250415 11.444490 26.612566 6.621724 -0.540293 -18.090281 0.737906 -5.531494 -43.776288 0.624608 24.726344 65.593699 23.565472 -16.559496 3.483720 -2.323179 0.193557 0.240822 0.139821
-133.446915 57.998731 110.473478 175.904840 -28.793347 -1.014706 2.226891 20.109853 3.102246 0.137202 2.526331 0.328098 0.232726 4.141785 0.541531 1.232453 17.242296 2.412435 0.570133 12.986967 -2.946444 2.288618 -11.719040 -5.754348 2.218088 -1.726190 -0.568996 8.414887 -13.433176 -16.855913 156.413511 -73.097663 -123.919803 16.502790 -17.246621 -47.051848 -6.414762 -4.263039 -3.075715 -0.458910 -8.242974 -0.820923 28.452291 -55.139858 -66.307879 4.919261 -7.493330 25.530151 1.829319 -46.837369 -0.841280 -16.483152 65.366355 -19.373626 11.540254 26.593253 6.733419 -0.565697 -18.094740 0.703716 -5.471445 -43.767485 0.528416 24.735243 65.569667 23.563889 -16.613403 3.488370 -2.314604 0.218846 0.235979 0.132334
-133.456759 57.998410 110.472692 175.946746 -28.777824 -0.988147 2.198800 20.101941 3.077105 0.162392 2.531465 0.344535 0.232738 4.139916 0.542681 1.203418 17.235995 2.400513 0.593299 12.911743 -2.902996 2.211069 -11.777613 -5.740678 2.283149 -1.731652 -0.552629 8.392640 -13.427585 -16.873545 156.388152 -73.084513 -123.891421 16.515028 -17.202905 -47.082787 -6.367953 -4.256829 -3.061468 -0.410514 -8.208368 -0.834228 28.458068 -55.158992 -66.326921 4.931477 -7.503986 25.562330 1.866238 -46.867717 -0.917323 -16.527838 65.387812 -19.435547 11.544651 26.592484 6.762044 -0.553045 -18.106007 0.701664 -5.411400 -43.779171 0.458601 24.778369 65.541847 23.593067 -16.667552 3.503808 -2.296782 0.211237 0.232991 0.139002
-133.465968 57.997110 110.473940 176.052305 -28.747432 -0.987724 2.114413 20.080858 3.047687 0.185967 2.535077 0.360559 0.232740 4.138025 0.544082 1.203151 17.233902 2.405642 0.573356 12.854566 -2.887283 2.148975 -11.853650 -5.721559 2.259636 -1.740130 -0.561512 8.411289 -13.426170 -16.876877 156.405663 -73.069292 -123.889457 16.507034 -17.244006 -47.054502 -6.385947 -4.262468 -3.066669 -0.323668 -8.167833 -0.834387 28.465811 -55.174734 -66.345228 4.937627 -7.507577 25.565643 1.888688 -46.912563 -1.012803 -16.621060 65.406745 -19.521446 11.456069 26.592855 6.717191 -0.479987 -18.107750 0.733757 -5.354842 -43.796243 0.369424 24.706691 65.519032 23.542729 -16.714186 3.494108 -2.295262 0.209862 0.255041 0.160362
-133.471870 57.996704 110.474018 176.130989 -28.726194 -0.985172 2.080157 20.071127 3.050648 0.175929 2.531547 0.356603 0.245257 4.139026 0.553758 1.250692 17.232749 2.438899 0.497849 12.807030 -2.895372 2.095865 -11.935753 -5.703356 2.223542 -1.751352 -0.576019 8.366555 -13.422089 -16.895740 156.507169 -73.051074 -123.942246 16.508132 -17.254047 -47.053671 -6.390009 -4.264395 -3.068033 -0.310375 -8.141687 -0.864518 28.478423 -55.184785 -66.347313 4.941985 -7.513162 25.568452 1.872351 -46.937144 -1.079157 -16.626870 65.416064 -19.533298 11.435630 26.607011 6.744287 -0.456200 -18.124522 0.709219 -5.317976 -43.807348 0.301727 24.672115 65.495306 23.514543 -16.754627 3.486995 -2.284322 0.246325 0.267506 0.152866
